Coordinates
version=1
nRows=26
nColumns=24
inDegrees=yes

Units are S.I. units (second, meters, Newtons, ...)
Angles are in degrees.

endheader
time	pelvis_tilt	pelvis_list	pelvis_rotation	pelvis_tx	pelvis_ty	pelvis_tz	hip_flexion_r	hip_adduction_r	hip_rotation_r	knee_angle_r	ankle_angle_r	subtalar_angle_r	mtp_angle_r	hip_flexion_l	hip_adduction_l	hip_rotation_l	knee_angle_l	ankle_angle_l	subtalar_angle_l	mtp_angle_l	lumbar_extension	lumbar_bending	lumbar_rotation
      3.86500000	    -20.86219882	     -0.66091923	      6.73168475	     -1.77562327	     -0.03496226	     -0.26936890	     48.00863055	      0.28863243	      4.65021822	     -7.57848322	     -1.30601879	     -4.78431975	     10.05184502	      1.92852785	      4.34771930	     14.69704668	    -12.63083785	     24.57820336	     19.87284210	    -63.16483747	     12.47206852	     -2.18394481	     -8.51886435
      3.87000000	    -20.87212391	     -0.78043348	      6.81304538	     -1.76709791	     -0.03614447	     -0.26915723	     48.21458509	      0.41273286	      4.37859016	     -8.41811520	     -1.25326834	     -4.98835258	     10.22038616	      1.83751452	      4.15632793	     14.42160429	    -13.50898196	     24.42097180	     20.62349809	    -62.81488337	     12.58342282	     -2.07435435	     -8.67281359
      3.87500000	    -20.85133868	     -0.89332030	      6.88694701	     -1.75842059	     -0.03728160	     -0.26893602	     48.35702167	      0.54950307	      4.15362518	     -9.31236890	     -1.25572541	     -5.24252698	     10.39728450	      1.73502538	      3.96406636	     14.06261934	    -14.42974204	     24.18103420	     21.38836069	    -62.49379041	     12.67540244	     -1.96395622	     -8.79158850
      3.88000000	    -20.82896172	     -1.03405663	      6.89873487	     -1.74956649	     -0.03842668	     -0.26859274	     48.48301331	      0.77038035	      3.96456504	    -10.26063542	     -1.42994247	     -5.54853704	     10.59759114	      1.64074132	      3.71570601	     13.56745691	    -15.36594654	     23.89628973	     22.25347777	    -62.12954444	     12.78826405	     -1.81617477	     -8.86207083
      3.88500000	    -20.78389879	     -1.16919461	      6.90565807	     -1.74059852	     -0.03951955	     -0.26821930	     48.55584858	      1.00379108	      3.81135603	    -11.23109666	     -1.76308713	     -5.93942572	     10.81706846	      1.54334880	      3.46013642	     13.01464437	    -16.33420209	     23.50580666	     23.12462431	    -61.75441268	     12.88368861	     -1.66917245	     -8.92275735
      3.89000000	    -20.71121845	     -1.27437540	      6.84150988	     -1.73148834	     -0.04055151	     -0.26772334	     48.53507833	      1.29083672	      3.88807811	    -12.08922316	     -2.66858872	     -6.86718486	     12.00366236	      1.39812279	      3.21776538	     12.38110671	    -17.26187406	     22.68007517	     23.97043485	    -59.75494322	     12.95889342	     -1.53289748	     -8.89775429
      3.89500000	    -20.67407903	     -1.45148285	      6.81045412	     -1.72230078	     -0.04158615	     -0.26730498	     48.60220678	      1.58759537	      3.60560515	    -13.12053864	     -3.38292988	     -7.21724091	     12.28167436	      1.38788686	      2.88429265	     11.57266075	    -18.34075125	     22.08072253	     24.94911445	    -59.20348699	     13.08864839	     -1.32744639	     -8.89405801
      3.90000000	    -20.63737701	     -1.67905915	      6.80817938	     -1.71300260	     -0.04250457	     -0.26693824	     48.64365272	      1.89659831	      3.24478762	    -14.13798262	     -4.31466448	     -7.58528880	     12.36059409	      1.42063030	      2.47804967	     10.72996266	    -19.45948622	     21.38335357	     25.91798405	    -58.97198880	     13.23688521	     -1.07244318	     -8.95715150
      3.90500000	    -20.60452020	     -1.87035269	      6.72401330	     -1.70369944	     -0.04338896	     -0.26636109	     48.69282417	      2.25848664	      3.07834691	    -15.15598407	     -5.57714637	     -8.21787444	     12.40109478	      1.49802228	      2.06198459	      9.66921485	    -20.62671277	     20.52795917	     27.00235294	    -58.64117240	     13.37701259	     -0.84572177	     -8.88096150
      3.91000000	    -20.51323071	     -2.09969199	      6.58000564	     -1.69431710	     -0.04407683	     -0.26570072	     48.63236404	      2.72394353	      3.09805513	    -16.05469305	     -7.37671857	     -9.43045790	     12.77857260	      1.50052083	      1.58165620	      8.67983142	    -21.73494318	     19.28610732	     27.96292349	    -57.08166492	     13.45931335	     -0.55502427	     -8.70938296
      3.91500000	    -20.51844032	     -2.28407335	      6.55158713	     -1.68507716	     -0.04476687	     -0.26530393	     48.76585818	      2.98023141	      2.69701974	    -17.10963773	     -8.92161439	     -9.98406701	     13.70633962	      1.68407734	      1.13976650	      7.62861837	    -22.81803885	     16.38496249	     29.34238953	    -47.38159296	     13.62591334	     -0.33588631	     -8.71636280
      3.92000000	    -20.60333196	     -2.44880066	      6.41248336	     -1.67580309	     -0.04547713	     -0.26465735	     48.99664191	      3.33562460	      2.62160887	    -18.25837064	    -10.22762546	    -10.54308879	     13.13548055	      2.04420158	      0.66372750	      6.37409080	    -24.12592546	     14.98401482	     30.51152019	    -47.27985220	     13.88011796	     -0.13177043	     -8.53573666
      3.92500000	    -20.59033733	     -2.65261879	      6.27729688	     -1.66652517	     -0.04586719	     -0.26395385	     49.11615554	      3.76990308	      2.65018515	    -19.49857849	    -11.07737793	    -11.01512865	     10.50069657	      2.21938738	      0.11610315	      5.23787463	    -24.94659987	     10.52872094	     31.90810607	    -32.21121534	     14.02194032	      0.11760152	     -8.37707315
      3.93000000	    -20.66716247	     -2.85912268	      6.16877213	     -1.65731009	     -0.04629520	     -0.26323307	     49.35321350	      4.18645840	      2.68759721	    -20.83899176	    -11.35895647	    -11.20138666	      7.02682190	      2.63101136	     -0.46284440	      4.12257280	    -26.06165209	      7.47830019	     33.14907558	    -26.02671394	     14.25737113	      0.34162206	     -8.24092961
      3.93500000	    -20.65649656	     -3.03813019	      6.01170488	     -1.64809930	     -0.04651026	     -0.26249920	     49.42799902	      4.63634709	      2.84855668	    -21.99765104	    -11.87586722	    -11.84294700	      5.38869125	      2.92205220	     -1.03245828	      3.02808708	    -26.94235333	      3.44484003	     34.26572644	    -16.55681789	     14.39148973	      0.56772476	     -8.02947644
      3.94000000	    -20.68639740	     -3.22445608	      5.87428986	     -1.63898540	     -0.04672838	     -0.26173408	     49.54558675	      5.10047429	      3.03170448	    -23.23100974	    -11.76655541	    -12.23183175	      2.85346054	      3.35754119	     -1.60121386	      2.14523015	    -28.02345574	      0.02471826	     35.22285710	    -11.36678838	     14.55866853	      0.77769648	     -7.84689521
      3.94500000	    -20.71624774	     -3.43062141	      5.72299402	     -1.62994957	     -0.04691270	     -0.26102381	     49.59505399	      5.58733821	      3.24561205	    -24.27651781	    -11.90709093	    -12.92348448	      2.53749464	      3.89153479	     -2.16561335	      1.52068040	    -29.36749633	     -2.54516010	     36.07247840	    -11.31499994	     14.72308683	      1.02045806	     -7.64610922
      3.95000000	    -20.59344567	     -3.68777918	      5.63981549	     -1.62093169	     -0.04680394	     -0.26025727	     49.46906659	      6.14524666	      3.39164742	    -25.51046357	    -10.69249709	    -12.93945344	     -1.55280406	      4.26636868	     -2.78555732	      0.97278938	    -30.40557140	     -6.55781079	     36.55880229	     -5.62518917	     14.72301102	      1.28862896	     -7.52719918
      3.95500000	    -20.64127410	     -3.80897675	      5.49162519	     -1.61219425	     -0.04690738	     -0.25951491	     49.46324593	      6.60707658	      3.72383893	    -26.49599949	    -10.31122661	    -13.54698668	     -1.67679724	      4.92975099	     -3.16313822	      0.71764733	    -31.76098196	     -9.54659181	     36.71825186	     -5.55521875	     14.86330441	      1.42764818	     -7.33465096
      3.96000000	    -20.58517777	     -4.03351073	      5.30001749	     -1.60336208	     -0.04685821	     -0.25881153	     49.27272509	      7.18143266	      3.94086206	    -27.38025359	     -9.61803930	    -13.89135302	     -1.87898258	      5.53067298	     -3.64561957	      0.44042642	    -33.14651264	    -12.57237640	     36.55685691	     -5.87661144	     14.91930807	      1.70471557	     -7.09000294
      3.96500000	    -20.45291414	     -4.27900537	      5.21210650	     -1.59481906	     -0.04664722	     -0.25821421	     48.95236391	      7.69954964	      4.05260844	    -28.15685149	     -8.89191946	    -14.27361769	     -1.86424751	      6.18126634	     -4.09946493	      0.35396326	    -34.63058115	    -15.60280224	     35.95389155	     -6.49742547	     14.85678989	      1.97441571	     -6.99819093
      3.97000000	    -20.35613239	     -4.53666900	      5.05968262	     -1.58631394	     -0.04644283	     -0.25754686	     48.60932136	      8.26805781	      4.18418160	    -28.82994872	     -8.11335431	    -14.58746471	     -1.87545816	      6.91536529	     -4.53542060	      0.24623270	    -36.12980969	    -18.63455529	     34.91303264	     -7.28910511	     14.83408942	      2.26960376	     -6.82107728
      3.97500000	    -20.35497625	     -4.75578516	      4.90419007	     -1.57797647	     -0.04631230	     -0.25683870	     48.37605419	      8.79407856	      4.27917915	    -29.62694524	     -6.51618277	    -14.17185546	     -4.41441420	      7.88009284	     -4.86708367	      0.32547709	    -37.92564558	    -20.45766641	     33.59623835	    -13.13456655	     14.89454041	      2.50523277	     -6.63576058
      3.98000000	    -20.23077451	     -4.94019059	      4.66190773	     -1.56969279	     -0.04598444	     -0.25614267	     47.90732302	      9.31823943	      4.38896039	    -30.12559333	     -5.65712537	    -14.17667944	     -4.00686485	      8.65573171	     -5.15121046	      0.20415404	    -39.42398813	    -23.20545944	     31.68452675	    -14.50832150	     14.80622078	      2.75384883	     -6.28447052
      3.98500000	    -20.22521385	     -5.28012931	      4.51841904	     -1.56160610	     -0.04576776	     -0.25555609	     47.50205087	      9.84960033	      4.32151535	    -30.39123789	     -5.20200986	    -14.41842372	     -2.60172725	      9.79008846	     -5.56320440	      0.28058796	    -41.38620238	    -24.21801174	     29.68032674	    -21.88570181	     14.85118101	      3.11869058	     -6.16365528
      3.99000000	    -20.08958426	     -5.53193764	      4.32893658	     -1.55351951	     -0.04529379	     -0.25497872	     46.91754741	     10.32079371	      4.22839825	    -30.66422950	     -4.27606055	    -14.12018240	     -2.16800671	     10.66475436	     -5.84767009	      0.27169664	    -42.91654445	    -26.45286884	     27.21356815	    -22.87230350	     14.74193737	      3.42247571	     -5.90144759
